<svg xmlns="http://www.w3.org/2000/svg" xmlns:xlink="http://www.w3.org/1999/xlink" width="1366" zoomAndPan="magnify" viewBox="0 0 1024.5 341.999987" height="456" preserveAspectRatio="xMidYMid meet" version="1.0"><defs><clipPath id="540c61e5c0"><path d="M 0 0.0820312 L 1024 0.0820312 L 1024 341.914062 L 0 341.914062 Z M 0 0.0820312 " clip-rule="nonzero"/></clipPath><clipPath id="57937e277d"><path d="M 690.210938 271 L 1023.796875 271 L 1023.796875 341.914062 L 690.210938 341.914062 Z M 690.210938 271 " clip-rule="nonzero"/></clipPath><clipPath id="348f411603"><path d="M 774 194.28125 L 1023.796875 194.28125 L 1023.796875 287 L 774 287 Z M 774 194.28125 " clip-rule="nonzero"/></clipPath><clipPath id="f8bc3d8bfe"><path d="M 0.199219 271 L 333.585938 271 L 333.585938 341.914062 L 0.199219 341.914062 Z M 0.199219 271 " clip-rule="nonzero"/></clipPath><clipPath id="814b176ece"><path d="M 0.199219 194.28125 L 250 194.28125 L 250 287 L 0.199219 287 Z M 0.199219 194.28125 " clip-rule="nonzero"/></clipPath></defs><g clip-path="url(#540c61e5c0)"><path fill="#ffffff" d="M 0 0.0820312 L 1024 0.0820312 L 1024 341.917969 L 0 341.917969 Z M 0 0.0820312 " fill-opacity="1" fill-rule="nonzero"/><path fill="#f8f8f8" d="M 0 0.0820312 L 1024 0.0820312 L 1024 341.917969 L 0 341.917969 Z M 0 0.0820312 " fill-opacity="1" fill-rule="nonzero"/></g><g clip-path="url(#57937e277d)"><path fill="#004d40" d="M 1023.339844 364.488281 L 1023.339844 271.378906 C 982.679688 277.679688 938.160156 276.949219 899.558594 276.316406 C 894.65625 276.25 889.851562 276.167969 885.3125 276.101562 C 847.859375 275.601562 814.796875 283.664062 791.988281 291.328125 C 761.183594 301.667969 703.601562 336.460938 690.867188 364.488281 Z M 1023.339844 364.488281 " fill-opacity="1" fill-rule="evenodd"/></g><g clip-path="url(#348f411603)"><path fill="#ffb300" d="M 899.726562 265.628906 C 938.308594 266.261719 983.078125 266.992188 1023.339844 260.410156 L 1023.339844 194.296875 C 998.003906 214.179688 962.429688 232.796875 905.34375 244.734375 C 895.738281 246.746094 885.445312 248.390625 874.90625 250.050781 C 838.96875 255.753906 800.035156 261.9375 774.898438 286.109375 C 797.757812 277.214844 838.234375 264.78125 885.429688 265.414062 C 890.199219 265.460938 894.90625 265.546875 899.726562 265.628906 Z M 899.726562 265.628906 " fill-opacity="1" fill-rule="evenodd"/></g><g clip-path="url(#f8bc3d8bfe)"><path fill="#004d40" d="M 0.65625 364.488281 L 0.65625 271.378906 C 41.320312 277.679688 85.835938 276.949219 124.4375 276.316406 C 129.339844 276.25 134.144531 276.167969 138.683594 276.101562 C 176.136719 275.601562 209.199219 283.664062 232.007812 291.328125 C 262.8125 301.667969 320.394531 336.460938 333.128906 364.488281 Z M 0.65625 364.488281 " fill-opacity="1" fill-rule="evenodd"/></g><g clip-path="url(#814b176ece)"><path fill="#ffb300" d="M 124.269531 265.628906 C 85.6875 266.261719 40.917969 266.992188 0.65625 260.410156 L 0.65625 194.296875 C 25.992188 214.179688 61.566406 232.796875 118.652344 244.734375 C 128.261719 246.746094 138.550781 248.390625 149.089844 250.050781 C 185.03125 255.753906 223.960938 261.9375 249.097656 286.109375 C 226.238281 277.214844 185.761719 264.78125 138.566406 265.414062 C 133.796875 265.460938 129.089844 265.546875 124.269531 265.628906 Z M 124.269531 265.628906 " fill-opacity="1" fill-rule="evenodd"/></g></svg>