<svg xmlns="http://www.w3.org/2000/svg" xmlns:xlink="http://www.w3.org/1999/xlink" width="1366" zoomAndPan="magnify" viewBox="0 0 1024.5 360.749986" height="481" preserveAspectRatio="xMidYMid meet" version="1.0"><defs><clipPath id="1557c8e20c"><path d="M 0.105469 0 L 1023.894531 0 L 1023.894531 360.5 L 0.105469 360.5 Z M 0.105469 0 " clip-rule="nonzero"/></clipPath><clipPath id="b26949540b"><path d="M 690.175781 286 L 1023.691406 286 L 1023.691406 360.5 L 690.175781 360.5 Z M 690.175781 286 " clip-rule="nonzero"/></clipPath><clipPath id="c96bdeb1f4"><path d="M 774 209.417969 L 1023.691406 209.417969 L 1023.691406 302 L 774 302 Z M 774 209.417969 " clip-rule="nonzero"/></clipPath><clipPath id="5ccdaf2b70"><path d="M 0.304688 286 L 333.625 286 L 333.625 360.5 L 0.304688 360.5 Z M 0.304688 286 " clip-rule="nonzero"/></clipPath><clipPath id="8a00900e92"><path d="M 0.304688 209.417969 L 250 209.417969 L 250 302 L 0.304688 302 Z M 0.304688 209.417969 " clip-rule="nonzero"/></clipPath></defs><g clip-path="url(#1557c8e20c)"><path fill="#ffffff" d="M 0.105469 0 L 1023.894531 0 L 1023.894531 360.5 L 0.105469 360.5 Z M 0.105469 0 " fill-opacity="1" fill-rule="nonzero"/><path fill="#f8f8f8" d="M 0.105469 0 L 1023.894531 0 L 1023.894531 360.5 L 0.105469 360.5 Z M 0.105469 0 " fill-opacity="1" fill-rule="nonzero"/></g><g clip-path="url(#b26949540b)"><path fill="#094005" d="M 1023.234375 379.59375 L 1023.234375 286.503906 C 982.582031 292.804688 938.074219 292.070312 899.480469 291.441406 C 894.578125 291.375 889.773438 291.289062 885.238281 291.222656 C 847.792969 290.726562 814.734375 298.785156 791.929688 306.449219 C 761.132812 316.785156 703.5625 351.570312 690.832031 379.59375 Z M 1023.234375 379.59375 " fill-opacity="1" fill-rule="evenodd"/></g><g clip-path="url(#c96bdeb1f4)"><path fill="#ffcc00" d="M 899.648438 280.753906 C 938.222656 281.382812 982.980469 282.117188 1023.234375 275.535156 L 1023.234375 209.4375 C 997.90625 229.3125 962.339844 247.929688 905.265625 259.863281 C 895.65625 261.871094 885.371094 263.519531 874.832031 265.179688 C 838.898438 270.878906 799.976562 277.0625 774.847656 301.230469 C 797.699219 292.335938 838.167969 279.90625 885.355469 280.535156 C 890.125 280.585938 894.828125 280.671875 899.648438 280.753906 Z M 899.648438 280.753906 " fill-opacity="1" fill-rule="evenodd"/></g><g clip-path="url(#5ccdaf2b70)"><path fill="#094005" d="M 0.761719 379.59375 L 0.761719 286.503906 C 41.414062 292.804688 85.925781 292.070312 124.515625 291.441406 C 129.417969 291.375 134.222656 291.289062 138.757812 291.222656 C 176.203125 290.726562 209.261719 298.785156 232.066406 306.449219 C 262.863281 316.785156 320.433594 351.570312 333.164062 379.59375 Z M 0.761719 379.59375 " fill-opacity="1" fill-rule="evenodd"/></g><g clip-path="url(#8a00900e92)"><path fill="#ffcc00" d="M 124.351562 280.753906 C 85.773438 281.382812 41.015625 282.117188 0.761719 275.535156 L 0.761719 209.4375 C 26.089844 229.3125 61.660156 247.929688 118.730469 259.863281 C 128.339844 261.871094 138.625 263.519531 149.164062 265.179688 C 185.097656 270.878906 224.019531 277.0625 249.152344 301.230469 C 226.296875 292.335938 185.828125 279.90625 138.644531 280.535156 C 133.875 280.585938 129.167969 280.671875 124.351562 280.753906 Z M 124.351562 280.753906 " fill-opacity="1" fill-rule="evenodd"/></g></svg>