<svg xmlns="http://www.w3.org/2000/svg" xmlns:xlink="http://www.w3.org/1999/xlink" width="1366" zoomAndPan="magnify" viewBox="0 0 1024.5 462.749983" height="617" preserveAspectRatio="xMidYMid meet" version="1.0"><defs><clipPath id="3e72c73f2b"><path d="M 0.0273438 0 L 1023.972656 0 L 1023.972656 462.5 L 0.0273438 462.5 Z M 0.0273438 0 " clip-rule="nonzero"/></clipPath><clipPath id="869d528f44"><path d="M 93 390 L 126 390 L 126 416.359375 L 93 416.359375 Z M 93 390 " clip-rule="nonzero"/></clipPath><clipPath id="5f0317dac6"><path d="M 71 392 L 103 392 L 103 416.359375 L 71 416.359375 Z M 71 392 " clip-rule="nonzero"/></clipPath><clipPath id="d5ac25f58c"><path d="M 46.277344 284 L 115 284 L 115 382 L 46.277344 382 Z M 46.277344 284 " clip-rule="nonzero"/></clipPath><clipPath id="f7ed5ecbaf"><path d="M 91 319 L 190.949219 319 L 190.949219 416.359375 L 91 416.359375 Z M 91 319 " clip-rule="nonzero"/></clipPath><clipPath id="a3185e7c27"><path d="M 46.277344 383 L 79 383 L 79 416.359375 L 46.277344 416.359375 Z M 46.277344 383 " clip-rule="nonzero"/></clipPath><clipPath id="19b11f6e05"><path d="M 46.277344 259.691406 L 133 259.691406 L 133 348 L 46.277344 348 Z M 46.277344 259.691406 " clip-rule="nonzero"/></clipPath><clipPath id="7902a24343"><path d="M 68 334 L 159 334 L 159 416.359375 L 68 416.359375 Z M 68 334 " clip-rule="nonzero"/></clipPath><clipPath id="b3787bf419"><path d="M 46.277344 350 L 73 350 L 73 386 L 46.277344 386 Z M 46.277344 350 " clip-rule="nonzero"/></clipPath></defs><g clip-path="url(#3e72c73f2b)"><path fill="#ffffff" d="M 0.0273438 0 L 1023.972656 0 L 1023.972656 462.5 L 0.0273438 462.5 Z M 0.0273438 0 " fill-opacity="1" fill-rule="nonzero"/><path fill="#f9f9f9" d="M 0.0273438 0 L 1023.972656 0 L 1023.972656 462.5 L 0.0273438 462.5 Z M 0.0273438 0 " fill-opacity="1" fill-rule="nonzero"/></g><g clip-path="url(#869d528f44)"><path fill="#ffcc00" d="M 125.964844 416.226562 L 112.25 416.226562 L 94.691406 398.671875 C 94.457031 398.449219 94.246094 398.203125 94.0625 397.9375 C 93.878906 397.675781 93.71875 397.394531 93.589844 397.097656 C 93.460938 396.800781 93.363281 396.492188 93.296875 396.179688 C 93.226562 395.863281 93.191406 395.542969 93.1875 395.21875 C 93.183594 394.894531 93.210938 394.574219 93.273438 394.257812 C 93.332031 393.9375 93.421875 393.628906 93.546875 393.332031 C 93.667969 393.03125 93.816406 392.746094 93.996094 392.476562 C 94.175781 392.207031 94.378906 391.957031 94.609375 391.730469 C 94.835938 391.5 95.085938 391.296875 95.355469 391.117188 C 95.625 390.941406 95.910156 390.789062 96.210938 390.667969 C 96.507812 390.546875 96.816406 390.453125 97.136719 390.394531 C 97.453125 390.335938 97.773438 390.304688 98.097656 390.308594 C 98.421875 390.3125 98.742188 390.351562 99.054688 390.417969 C 99.371094 390.488281 99.679688 390.585938 99.976562 390.714844 C 100.273438 390.84375 100.554688 391 100.816406 391.1875 C 101.082031 391.371094 101.328125 391.582031 101.550781 391.816406 Z M 125.964844 416.226562 " fill-opacity="1" fill-rule="nonzero"/></g><g clip-path="url(#5f0317dac6)"><path fill="#ffcc00" d="M 102.589844 416.226562 L 88.871094 416.226562 L 73.171875 400.527344 C 72.949219 400.300781 72.753906 400.058594 72.582031 399.792969 C 72.40625 399.527344 72.261719 399.25 72.144531 398.957031 C 72.023438 398.664062 71.9375 398.359375 71.875 398.050781 C 71.816406 397.738281 71.789062 397.425781 71.789062 397.109375 C 71.792969 396.792969 71.824219 396.480469 71.886719 396.171875 C 71.949219 395.863281 72.042969 395.5625 72.164062 395.269531 C 72.285156 394.976562 72.433594 394.699219 72.609375 394.4375 C 72.789062 394.175781 72.988281 393.933594 73.210938 393.707031 C 73.433594 393.484375 73.675781 393.285156 73.941406 393.109375 C 74.203125 392.933594 74.480469 392.785156 74.769531 392.664062 C 75.0625 392.539062 75.363281 392.449219 75.671875 392.386719 C 75.984375 392.324219 76.296875 392.289062 76.613281 392.289062 C 76.929688 392.285156 77.242188 392.316406 77.550781 392.375 C 77.863281 392.433594 78.164062 392.523438 78.457031 392.640625 C 78.75 392.761719 79.03125 392.90625 79.292969 393.078125 C 79.558594 393.253906 79.804688 393.449219 80.03125 393.671875 Z M 102.589844 416.226562 " fill-opacity="1" fill-rule="nonzero"/></g><g clip-path="url(#d5ac25f58c)"><path fill="#23841b" d="M 112.644531 369.976562 C 112.296875 370.6875 111.90625 371.375 111.480469 372.039062 C 111.050781 372.703125 110.582031 373.34375 110.078125 373.953125 C 109.574219 374.5625 109.035156 375.136719 108.460938 375.683594 C 107.890625 376.226562 107.285156 376.738281 106.652344 377.210938 C 106.015625 377.683594 105.355469 378.117188 104.671875 378.511719 C 103.984375 378.90625 103.28125 379.261719 102.550781 379.570312 C 101.824219 379.882812 101.082031 380.148438 100.320312 380.371094 C 99.5625 380.59375 98.792969 380.769531 98.011719 380.898438 C 97.230469 381.03125 96.445312 381.113281 95.65625 381.152344 C 94.867188 381.1875 94.078125 381.179688 93.289062 381.121094 C 92.5 381.0625 91.714844 380.960938 90.9375 380.8125 C 90.160156 380.660156 89.394531 380.464844 88.644531 380.222656 C 87.890625 379.984375 87.152344 379.699219 86.433594 379.367188 C 85.714844 379.039062 85.015625 378.667969 84.339844 378.257812 C 83.664062 377.847656 83.015625 377.394531 82.394531 376.90625 C 81.773438 376.417969 81.183594 375.894531 80.621094 375.335938 L 46.277344 340.988281 L 46.277344 284.601562 L 108.816406 347.140625 C 114.992188 353.316406 116.269531 362.539062 112.644531 369.976562 Z M 112.644531 369.976562 " fill-opacity="1" fill-rule="nonzero"/></g><g clip-path="url(#f7ed5ecbaf)"><path fill="#0c5007" d="M 190.636719 416.226562 L 187.148438 416.226562 L 92.011719 321.089844 C 91.902344 320.972656 91.820312 320.839844 91.761719 320.691406 C 91.707031 320.542969 91.679688 320.386719 91.683594 320.226562 C 91.683594 320.066406 91.71875 319.914062 91.78125 319.769531 C 91.84375 319.621094 91.929688 319.492188 92.042969 319.378906 C 92.15625 319.265625 92.285156 319.179688 92.433594 319.117188 C 92.578125 319.054688 92.730469 319.019531 92.890625 319.019531 C 93.050781 319.015625 93.207031 319.042969 93.355469 319.097656 C 93.503906 319.15625 93.636719 319.238281 93.753906 319.347656 Z M 190.636719 416.226562 " fill-opacity="1" fill-rule="nonzero"/></g><g clip-path="url(#a3185e7c27)"><path fill="#0c5007" d="M 78.746094 416.226562 L 75.261719 416.226562 L 46.277344 387.242188 L 46.277344 383.757812 Z M 78.746094 416.226562 " fill-opacity="1" fill-rule="nonzero"/></g><g clip-path="url(#19b11f6e05)"><path fill="#ffcc00" d="M 132.386719 347.558594 C 132.269531 347.675781 132.136719 347.765625 131.984375 347.828125 C 131.835938 347.890625 131.675781 347.921875 131.515625 347.921875 C 131.351562 347.921875 131.191406 347.890625 131.042969 347.828125 C 130.890625 347.765625 130.757812 347.675781 130.640625 347.558594 L 46.277344 263.195312 L 46.277344 259.707031 L 132.386719 345.816406 C 132.5 345.933594 132.589844 346.066406 132.652344 346.214844 C 132.714844 346.367188 132.746094 346.523438 132.746094 346.6875 C 132.746094 346.851562 132.714844 347.007812 132.652344 347.160156 C 132.589844 347.3125 132.5 347.445312 132.386719 347.558594 Z M 132.386719 347.558594 " fill-opacity="1" fill-rule="nonzero"/></g><g clip-path="url(#7902a24343)"><path fill="#0c5007" d="M 158.894531 416.226562 L 140.519531 416.226562 L 103.457031 379.160156 L 70.164062 345.867188 C 69.863281 345.566406 69.59375 345.238281 69.359375 344.882812 C 69.121094 344.53125 68.921875 344.15625 68.757812 343.761719 C 68.59375 343.367188 68.472656 342.960938 68.386719 342.542969 C 68.304688 342.125 68.261719 341.703125 68.261719 341.277344 C 68.261719 340.851562 68.304688 340.425781 68.386719 340.007812 C 68.472656 339.589844 68.59375 339.183594 68.757812 338.789062 C 68.921875 338.398438 69.121094 338.023438 69.359375 337.667969 C 69.59375 337.3125 69.863281 336.984375 70.164062 336.683594 C 70.46875 336.382812 70.796875 336.113281 71.148438 335.875 C 71.503906 335.640625 71.878906 335.4375 72.273438 335.277344 C 72.667969 335.113281 73.074219 334.988281 73.492188 334.90625 C 73.910156 334.824219 74.332031 334.78125 74.757812 334.78125 C 75.183594 334.78125 75.605469 334.824219 76.023438 334.90625 C 76.441406 334.988281 76.847656 335.113281 77.242188 335.277344 C 77.636719 335.4375 78.011719 335.640625 78.367188 335.875 C 78.722656 336.113281 79.050781 336.382812 79.351562 336.683594 L 143.90625 401.242188 Z M 158.894531 416.226562 " fill-opacity="1" fill-rule="nonzero"/></g><g clip-path="url(#b3787bf419)"><path fill="#ffcc00" d="M 70.234375 384.074219 C 69.933594 384.375 69.605469 384.644531 69.25 384.882812 C 68.894531 385.117188 68.519531 385.320312 68.128906 385.480469 C 67.734375 385.644531 67.328125 385.769531 66.910156 385.851562 C 66.492188 385.933594 66.066406 385.976562 65.640625 385.976562 C 65.214844 385.976562 64.792969 385.933594 64.375 385.851562 C 63.957031 385.769531 63.550781 385.644531 63.15625 385.480469 C 62.761719 385.320312 62.386719 385.117188 62.035156 384.882812 C 61.679688 384.644531 61.351562 384.375 61.050781 384.074219 L 46.277344 369.300781 L 46.277344 350.929688 L 70.234375 374.890625 C 70.535156 375.191406 70.804688 375.519531 71.042969 375.871094 C 71.28125 376.226562 71.480469 376.601562 71.644531 376.996094 C 71.804688 377.390625 71.929688 377.796875 72.011719 378.214844 C 72.097656 378.632812 72.136719 379.054688 72.136719 379.480469 C 72.136719 379.90625 72.097656 380.332031 72.011719 380.75 C 71.929688 381.167969 71.804688 381.574219 71.644531 381.96875 C 71.480469 382.359375 71.28125 382.734375 71.042969 383.089844 C 70.804688 383.445312 70.535156 383.773438 70.234375 384.074219 Z M 70.234375 384.074219 " fill-opacity="1" fill-rule="nonzero"/></g><path fill="#0c5007" d="M 76.722656 305.363281 C 76.722656 306.035156 76.65625 306.699219 76.527344 307.355469 C 76.394531 308.015625 76.199219 308.652344 75.945312 309.273438 C 75.6875 309.890625 75.375 310.480469 75 311.039062 C 74.628906 311.59375 74.203125 312.109375 73.730469 312.585938 C 73.257812 313.058594 72.742188 313.484375 72.183594 313.855469 C 71.625 314.226562 71.039062 314.542969 70.417969 314.796875 C 69.796875 315.054688 69.160156 315.25 68.503906 315.378906 C 67.84375 315.511719 67.179688 315.574219 66.511719 315.574219 C 65.839844 315.574219 65.175781 315.511719 64.519531 315.378906 C 63.859375 315.25 63.222656 315.054688 62.601562 314.796875 C 61.984375 314.542969 61.394531 314.226562 60.835938 313.855469 C 60.28125 313.484375 59.761719 313.058594 59.289062 312.585938 C 58.816406 312.109375 58.390625 311.59375 58.019531 311.039062 C 57.648438 310.480469 57.332031 309.890625 57.074219 309.273438 C 56.820312 308.652344 56.625 308.015625 56.496094 307.355469 C 56.363281 306.699219 56.296875 306.035156 56.296875 305.363281 C 56.296875 304.695312 56.363281 304.03125 56.496094 303.371094 C 56.625 302.714844 56.820312 302.074219 57.074219 301.457031 C 57.332031 300.835938 57.648438 300.25 58.019531 299.691406 C 58.390625 299.132812 58.816406 298.617188 59.289062 298.144531 C 59.761719 297.667969 60.28125 297.246094 60.835938 296.875 C 61.394531 296.5 61.984375 296.1875 62.601562 295.929688 C 63.222656 295.671875 63.859375 295.480469 64.519531 295.347656 C 65.175781 295.21875 65.839844 295.152344 66.511719 295.152344 C 67.179688 295.152344 67.84375 295.21875 68.503906 295.347656 C 69.160156 295.480469 69.796875 295.671875 70.417969 295.929688 C 71.039062 296.1875 71.625 296.5 72.183594 296.875 C 72.742188 297.246094 73.257812 297.667969 73.730469 298.144531 C 74.203125 298.617188 74.628906 299.132812 75 299.691406 C 75.375 300.25 75.6875 300.835938 75.945312 301.457031 C 76.199219 302.074219 76.394531 302.714844 76.527344 303.371094 C 76.65625 304.03125 76.722656 304.695312 76.722656 305.363281 Z M 76.722656 305.363281 " fill-opacity="1" fill-rule="nonzero"/><path fill="#ffcc00" d="M 145.757812 396.492188 C 145.757812 396.953125 145.714844 397.410156 145.625 397.863281 C 145.535156 398.3125 145.402344 398.753906 145.226562 399.179688 C 145.046875 399.605469 144.832031 400.007812 144.578125 400.390625 C 144.320312 400.773438 144.03125 401.128906 143.703125 401.453125 C 143.378906 401.78125 143.023438 402.070312 142.640625 402.328125 C 142.257812 402.582031 141.855469 402.800781 141.429688 402.976562 C 141.003906 403.152344 140.5625 403.285156 140.113281 403.375 C 139.660156 403.464844 139.203125 403.507812 138.742188 403.507812 C 138.28125 403.507812 137.828125 403.464844 137.375 403.375 C 136.921875 403.285156 136.484375 403.152344 136.058594 402.976562 C 135.632812 402.800781 135.230469 402.582031 134.847656 402.328125 C 134.464844 402.070312 134.109375 401.78125 133.785156 401.453125 C 133.457031 401.128906 133.167969 400.773438 132.910156 400.390625 C 132.65625 400.007812 132.4375 399.605469 132.261719 399.179688 C 132.085938 398.753906 131.953125 398.3125 131.863281 397.863281 C 131.773438 397.410156 131.730469 396.953125 131.730469 396.492188 C 131.730469 396.035156 131.773438 395.578125 131.863281 395.125 C 131.953125 394.671875 132.085938 394.234375 132.261719 393.808594 C 132.4375 393.382812 132.65625 392.980469 132.910156 392.597656 C 133.167969 392.214844 133.457031 391.859375 133.785156 391.535156 C 134.109375 391.207031 134.464844 390.917969 134.847656 390.660156 C 135.230469 390.40625 135.632812 390.1875 136.058594 390.011719 C 136.484375 389.835938 136.921875 389.703125 137.375 389.613281 C 137.828125 389.523438 138.28125 389.480469 138.742188 389.480469 C 139.203125 389.480469 139.660156 389.523438 140.113281 389.613281 C 140.5625 389.703125 141.003906 389.835938 141.429688 390.011719 C 141.855469 390.1875 142.257812 390.40625 142.640625 390.660156 C 143.023438 390.917969 143.378906 391.207031 143.703125 391.535156 C 144.03125 391.859375 144.320312 392.214844 144.578125 392.597656 C 144.832031 392.980469 145.046875 393.382812 145.226562 393.808594 C 145.402344 394.234375 145.535156 394.671875 145.625 395.125 C 145.714844 395.578125 145.757812 396.035156 145.757812 396.492188 Z M 145.757812 396.492188 " fill-opacity="1" fill-rule="nonzero"/><path fill="#ffcc00" d="M 131.492188 382.226562 C 131.492188 382.6875 131.445312 383.144531 131.355469 383.59375 C 131.265625 384.046875 131.132812 384.484375 130.957031 384.910156 C 130.78125 385.335938 130.566406 385.742188 130.308594 386.125 C 130.054688 386.507812 129.761719 386.863281 129.4375 387.1875 C 129.109375 387.511719 128.757812 387.804688 128.375 388.058594 C 127.992188 388.316406 127.585938 388.53125 127.160156 388.707031 C 126.734375 388.882812 126.296875 389.015625 125.84375 389.105469 C 125.394531 389.195312 124.9375 389.242188 124.476562 389.242188 C 124.015625 389.242188 123.558594 389.195312 123.109375 389.105469 C 122.65625 389.015625 122.21875 388.882812 121.792969 388.707031 C 121.367188 388.53125 120.960938 388.316406 120.578125 388.058594 C 120.195312 387.804688 119.839844 387.511719 119.515625 387.1875 C 119.191406 386.863281 118.898438 386.507812 118.644531 386.125 C 118.386719 385.742188 118.171875 385.335938 117.996094 384.910156 C 117.820312 384.484375 117.6875 384.046875 117.597656 383.59375 C 117.507812 383.144531 117.460938 382.6875 117.460938 382.226562 C 117.460938 381.765625 117.507812 381.308594 117.597656 380.859375 C 117.6875 380.40625 117.820312 379.96875 117.996094 379.542969 C 118.171875 379.117188 118.386719 378.710938 118.644531 378.328125 C 118.898438 377.945312 119.191406 377.59375 119.515625 377.265625 C 119.839844 376.941406 120.195312 376.648438 120.578125 376.394531 C 120.960938 376.136719 121.367188 375.921875 121.792969 375.746094 C 122.21875 375.570312 122.65625 375.4375 123.109375 375.347656 C 123.558594 375.257812 124.015625 375.210938 124.476562 375.210938 C 124.9375 375.210938 125.394531 375.257812 125.84375 375.347656 C 126.296875 375.4375 126.734375 375.570312 127.160156 375.746094 C 127.585938 375.921875 127.992188 376.136719 128.375 376.394531 C 128.757812 376.648438 129.109375 376.941406 129.4375 377.265625 C 129.761719 377.589844 130.054688 377.945312 130.308594 378.328125 C 130.566406 378.710938 130.78125 379.117188 130.957031 379.542969 C 131.132812 379.96875 131.265625 380.40625 131.355469 380.859375 C 131.445312 381.308594 131.492188 381.765625 131.492188 382.226562 Z M 131.492188 382.226562 " fill-opacity="1" fill-rule="nonzero"/></svg>